<svg version="1" xmlns="http://www.w3.org/2000/svg" width="360" height="360" viewBox="0 0 270.000000 270.000000"><path d="M131.3 41.2c-2.8 1.3-4.5 5.5-4.5 11 .1 5.8.7 9.3 4.3 22.2 1.6 6 2.9 11.2 2.7 11.7-.2.5-5-3.8-10.8-9.6-5.8-5.7-12.6-11.6-15.1-13-13.5-7.3-22.1 4-10.4 13.7 2 1.7 15.8 6.4 27.5 9.3 3.6.9 6.9 1.9 7.4 2.2.7.5-9.1 3.5-16.2 4.9-4.6.9-15.3 5.2-18.7 7.5-6 4.1-7.3 10.3-2.9 13.8 6.2 4.9 13.2 1.5 28.6-13.6L135 89.6l-1.4 4.9c-8.3 28.2-8.6 38.8-1.3 42.3 3.7 1.8 9.1-.7 10.6-5 2.1-5.8 1.4-9.9-5.8-37.6-.5-1.7-.8-3.2-.6-3.2.2 0 5.2 4.7 11.1 10.5 12.2 11.9 19.1 16.1 24.8 15.1 6.2-1.2 8-8.4 3.3-13.4-3.9-4.2-11.2-7-34.7-13.2l-4.5-1.2L150 85c14.5-3.9 21.2-6.6 24.7-9.7 6.4-5.7 4-14.6-4-14.6-5.7 0-11 3.5-23.1 15.3-6.5 6.3-11.6 10.6-11.3 9.5 3.6-12.4 6.9-26.7 7.1-30.9.6-11.1-4.7-17-12.1-13.4zM74.9 133.2c-1.4.5-3.4 2.4-4.4 4.2-2.5 4.6-1.6 14.6 2.8 30.3 1.9 6.8 3.3 12.3 3.1 12.3-.1 0-5.1-4.8-11-10.6-12.1-11.9-16.2-14.8-22-15.8-3.1-.6-4.5-.3-6.2 1.1-3.2 2.6-3.7 7.1-1.2 11.1 2.6 4.3 8.9 7.1 25.4 11.7 7.1 1.9 13.1 3.7 13.4 3.9.2.3-1.6 1-3.9 1.6-25.6 6.5-34.5 10.7-36.3 16.8-1.6 5.7 2.5 10.3 8.6 9.6 5.3-.5 10.2-3.9 21.4-14.7 6.3-6 11.4-10.3 11.4-9.6 0 .8-1.4 6.3-3 12.4-4.9 17.9-5.1 26.4-.8 30.5 3.1 2.8 7.9 2.6 10.8-.5 4.1-4.3 3.8-12.2-.9-29.9l-3.9-14.9 8.6 8.5c14.8 14.6 17.8 16.8 24.9 18.1 4.5.9 9.2-3 8.8-7.3-.6-7.5-5.4-10.5-27-16.5l-15-4.3 4.5-1.1c25.7-6.7 30.9-8.8 35.4-14.1 3-3.6 3.2-5 1.1-9-1.1-2.1-2.5-3.1-5-3.6-5.9-1.1-12.5 3-25.1 15.6l-11.2 11 .9-4.2c.6-2.3 1.9-7.3 3-11.2 2.7-9.7 3.3-13.1 3.3-19.8 0-8.7-4.5-13.7-10.5-11.6zM191.1 132.9c-7.4 1.9-8.3 12-2.7 32.6 1.9 7.1 3.3 13.1 3.1 13.3-.2.2-5-4.2-10.7-9.8-11.1-11-16.3-14.6-22.1-15.5-7.2-1.2-11.3 6.9-6.6 12.9 3.1 4 10 7 24.9 11.1 7.4 2 13.6 3.8 13.8 4 .4.4-1.5.9-16.3 4.6-9.8 2.5-19.8 7.2-22.5 10.6-4.4 5.7-1.3 12.6 5.7 12.6 5.9 0 11.6-3.8 23.5-15.4 5.5-5.4 10.3-9.8 10.5-9.5.2.2-1 5.2-2.6 11.2-4.8 18-5.4 25-2.6 30.3 2.6 5.2 9.9 5.4 13.2.4 3.4-5.2 2.1-15.2-5.4-41.8-.3-1.1 4.6 3 10.9 9.1 11.8 11.6 17.8 15.5 23.5 15.7 7.4.2 10.2-8.2 4.6-13.8-4.1-4-6.9-5.2-23.6-9.9l-15.2-4.4 4.5-1.2c18.4-4.8 23.1-6.3 27.9-8.7 9.4-4.8 12-11.4 6.6-16.1-2.2-1.8-3.6-2.3-6.1-1.9-6.1 1-10.4 3.9-20.2 13.6-5.4 5.3-10.9 10.5-12.2 11.6l-2.3 2 1-2c2.3-4.5 7.6-28.3 7.6-33.8-.1-8.6-4.2-13.3-10.2-11.8z"/></svg>