<?xml version="1.0" standalone="no"?>
<!DOCTYPE svg PUBLIC "-//W3C//DTD SVG 20010904//EN"
 "http://www.w3.org/TR/2001/REC-SVG-20010904/DTD/svg10.dtd">
<svg version="1.0" xmlns="http://www.w3.org/2000/svg"
 width="260.000000pt" height="260.000000pt" viewBox="0 0 260.000000 260.000000"
 preserveAspectRatio="xMidYMid meet">
<metadata>
Created by potrace 1.11, written by Peter Selinger 2001-2013
</metadata>
<g transform="translate(0.000000,260.000000) scale(0.100000,-0.100000)"
fill="#000000" stroke="none">
<path d="M0 1300 l0 -1300 1300 0 1300 0 0 1300 0 1300 -1300 0 -1300 0 0
-1300z m1040 832 c94 -33 177 -86 231 -146 l27 -31 39 39 c97 99 232 158 373
163 161 5 292 -48 410 -167 56 -55 85 -95 112 -150 53 -111 60 -140 63 -273 7
-271 -105 -506 -360 -762 -103 -103 -170 -159 -390 -327 -99 -75 -195 -150
-212 -167 l-33 -30 -32 30 c-18 17 -96 78 -173 137 -423 321 -580 481 -693
707 -75 150 -102 264 -97 420 6 178 55 296 175 415 92 91 191 145 300 163 62
10 207 -2 260 -21z"/>
</g>
</svg>
