<svg xmlns="http://www.w3.org/2000/svg" viewBox="0 0 15 15" width="15" height="15">
  <path d="M5.868 11.26c.368.212.552.458.552.737 0 .1-.028.198-.084.293a.508.508 0 0 1-.477.268c-.184 0-.393-.067-.627-.201a3.403 3.403 0 0 1-.528-.385 21.245 21.245 0 0 1-.72-.695 42.646 42.646 0 0 0-.72-.72l.268 1.021c.118.424.201.75.251.98.05.223.079.426.084.61-.005.319-.072.553-.2.704a.603.603 0 0 1-.47.217.531.531 0 0 1-.426-.217c-.118-.145-.176-.38-.176-.703 0-.196.022-.405.067-.628.05-.229.131-.553.243-.971.117-.419.209-.756.276-1.013-.19.178-.441.427-.754.745a18.17 18.17 0 0 1-.72.703c-.172.15-.34.273-.502.368-.223.129-.427.193-.61.193-.24 0-.414-.098-.52-.293a.529.529 0 0 1-.075-.26c0-.262.19-.507.57-.736a2.96 2.96 0 0 1 .568-.243c.212-.073.528-.162.946-.268.424-.111.768-.206 1.03-.284a33.636 33.636 0 0 0-1.013-.277 19.08 19.08 0 0 1-.971-.276 3.748 3.748 0 0 1-.578-.243C.19 9.47.008 9.223.008 8.95c0-.1.028-.198.084-.293.09-.179.246-.268.469-.268.184 0 .393.067.628.2.173.101.346.23.519.386.173.156.41.39.711.703.307.307.555.55.745.728-.056-.24-.142-.572-.26-.996-.117-.43-.2-.759-.25-.988a3.064 3.064 0 0 1-.076-.636c0-.318.062-.552.184-.703a.563.563 0 0 1 .452-.226c.173 0 .318.076.436.226.122.15.184.385.184.703 0 .196-.025.408-.076.636-.044.224-.125.545-.242.963-.112.413-.201.748-.268 1.005.19-.179.438-.425.745-.737.312-.313.552-.547.72-.703.173-.156.34-.282.502-.377.234-.128.438-.192.61-.192.246 0 .422.097.528.293.05.089.076.175.076.26 0 .273-.193.518-.578.736a3.359 3.359 0 0 1-.57.25c-.211.068-.53.157-.953.269-.419.106-.76.198-1.022.276.251.072.59.167 1.013.284.43.112.754.204.971.277.218.067.41.145.578.234zM14.439 11.26c.368.212.553.458.553.737 0 .1-.028.198-.084.293a.508.508 0 0 1-.477.268c-.184 0-.394-.067-.628-.201a3.404 3.404 0 0 1-.528-.385 21.228 21.228 0 0 1-.72-.695 42.773 42.773 0 0 0-.72-.72l.269 1.021c.117.424.2.75.25.98.051.223.079.426.085.61-.006.319-.073.553-.201.704a.603.603 0 0 1-.47.217.531.531 0 0 1-.426-.217c-.117-.145-.176-.38-.176-.703 0-.196.022-.405.067-.628.05-.229.131-.553.243-.971.117-.419.21-.756.276-1.013-.19.178-.44.427-.753.745-.307.312-.547.547-.72.703-.173.15-.34.273-.502.368-.224.129-.427.193-.611.193-.24 0-.413-.098-.52-.293a.529.529 0 0 1-.075-.26c0-.262.19-.507.57-.736a2.96 2.96 0 0 1 .569-.243c.212-.073.527-.162.946-.268.424-.111.767-.206 1.03-.284a33.586 33.586 0 0 0-1.014-.277 19.08 19.08 0 0 1-.97-.276 3.748 3.748 0 0 1-.578-.243c-.363-.217-.544-.463-.544-.736 0-.1.028-.198.083-.293.09-.179.246-.268.47-.268.183 0 .393.067.627.2.173.101.346.23.519.386.173.156.41.39.711.703.307.307.556.55.745.728-.055-.24-.142-.572-.26-.996-.116-.43-.2-.759-.25-.988a3.065 3.065 0 0 1-.076-.636c0-.318.062-.552.185-.703a.562.562 0 0 1 .452-.226c.173 0 .318.076.435.226.123.15.184.385.184.703 0 .196-.025.408-.075.636a14.23 14.23 0 0 1-.243.963c-.112.413-.201.748-.268 1.005.19-.179.438-.425.745-.737.313-.313.553-.547.72-.703.173-.156.34-.282.502-.377.235-.128.438-.192.611-.192.246 0 .421.097.527.293a.53.53 0 0 1 .076.26c0 .273-.193.518-.578.736a3.357 3.357 0 0 1-.569.25c-.212.068-.53.157-.954.269a26.5 26.5 0 0 0-1.021.276c.25.072.588.167 1.012.284.43.112.754.204.971.277.218.067.41.145.578.234zM10.154 4.403c.368.212.552.457.552.737a.57.57 0 0 1-.083.292.508.508 0 0 1-.477.268c-.185 0-.394-.067-.628-.2a3.403 3.403 0 0 1-.528-.386 21.168 21.168 0 0 1-.72-.694 42.99 42.99 0 0 0-.72-.72L7.82 4.72c.117.424.2.75.25.98.05.223.079.426.084.61-.005.318-.072.553-.2.704a.603.603 0 0 1-.47.217.531.531 0 0 1-.426-.217c-.117-.146-.176-.38-.176-.704 0-.195.022-.404.067-.627.05-.23.131-.553.243-.971.117-.419.209-.757.276-1.013-.19.178-.44.427-.753.745-.307.312-.547.547-.72.703-.173.15-.34.273-.503.368-.223.129-.426.193-.61.193-.24 0-.414-.098-.52-.293a.529.529 0 0 1-.075-.26c0-.262.19-.508.57-.736a2.96 2.96 0 0 1 .569-.243c.212-.073.527-.162.945-.268.425-.112.768-.206 1.03-.285a33.528 33.528 0 0 0-1.013-.276 19.077 19.077 0 0 1-.97-.276 3.748 3.748 0 0 1-.578-.243c-.363-.217-.545-.463-.545-.736 0-.1.028-.198.084-.293.09-.179.246-.268.469-.268.184 0 .393.067.628.2.173.101.346.23.519.386.173.156.41.39.711.703.307.307.555.55.745.728-.056-.24-.142-.572-.26-.996-.116-.43-.2-.759-.25-.988A3.063 3.063 0 0 1 6.864.93c0-.318.062-.552.184-.703A.563.563 0 0 1 7.5 0c.173 0 .319.075.436.226.122.15.184.385.184.703 0 .195-.025.407-.075.636a14.19 14.19 0 0 1-.243.963c-.112.413-.201.748-.268 1.004.19-.178.438-.424.745-.736.312-.313.552-.547.72-.703.173-.157.34-.282.502-.377.234-.128.438-.193.611-.193.246 0 .421.098.527.293.05.09.076.176.076.26 0 .273-.193.519-.578.736a3.357 3.357 0 0 1-.57.252c-.211.067-.53.156-.953.267-.419.107-.76.199-1.022.277.252.072.59.167 1.013.284.43.112.754.204.971.277.218.066.41.145.578.234z"/>
</svg>
