<svg aria-labelledby="resume-svg-title" role="img" xmlns="http://www.w3.org/2000/svg" viewBox="0 0 392 96" width="392" height="96">
  <title id="resume-svg-title">Doug Stewart's Resume</title>
  <path d="M69.578 90.156c-1.906 1.906-4.016 3.25-6.328 4.031-2.313.782-5 1.172-8.063 1.172-4.406 0-7.843-.78-10.312-2.343-2.438-1.594-3.938-4.282-4.5-8.063l-1.453-9.562c-.656-4.5-1.531-7.891-2.625-10.172-1.094-2.313-2.766-3.469-5.016-3.469h-4.36v22.078c0 2.406.173 4.156.517 5.25.343 1.094.968 1.844 1.875 2.25.937.406 2.421.656 4.453.75V94c-3.75-.188-9.094-.281-16.032-.281-7.75 0-13.453.094-17.109.281v-1.922c2.063-.094 3.547-.344 4.453-.75.938-.406 1.563-1.156 1.875-2.25.344-1.094.516-2.844.516-5.25V36.203c0-2.406-.172-4.156-.516-5.25-.344-1.094-.984-1.844-1.922-2.25-.906-.406-2.375-.656-4.406-.75v-1.922c3.656.188 9.172.282 16.547.282 2.625 0 5.547-.032 8.765-.094 3.22-.063 5.438-.094 6.657-.094 9.75 0 17 1.375 21.75 4.125 4.781 2.719 7.172 6.906 7.172 12.563 0 4.812-1.797 8.921-5.391 12.328-3.594 3.375-9.625 5.468-18.094 6.28 6.532.376 11.469 1.579 14.813 3.61 3.375 2 5.437 4.969 6.187 8.906l2.016 9.985c.469 2.344 1.016 3.969 1.64 4.875.657.906 1.547 1.36 2.672 1.36 1.157 0 2.141-.423 2.954-1.266l1.265 1.265zM29.547 59.828c3.125 0 5.547-.687 7.265-2.062 1.75-1.375 2.938-3.22 3.563-5.532.656-2.312.984-5.093.984-8.343 0-5.25-.718-9.22-2.156-11.907-1.437-2.687-3.797-4.03-7.078-4.03-1.469 0-2.578.233-3.328.702-.719.438-1.219 1.235-1.5 2.39-.25 1.157-.375 2.876-.375 5.157v23.625h2.625zM122.359 73.844c-.218 1.719-.328 4.015-.328 6.89 0 3.532.235 7.954.703 13.266-4.156-.188-11.172-.281-21.046-.281-14.063 0-24.626.094-31.688.281v-1.922c2.063-.094 3.547-.344 4.453-.75.938-.406 1.563-1.156 1.875-2.25.344-1.094.516-2.844.516-5.25V45.812c0-2.406-.172-4.156-.516-5.25-.344-1.093-.984-1.843-1.922-2.25-.906-.406-2.375-.656-4.406-.75v-1.921c7.063.187 17.625.28 31.688.28 8.968 0 15.343-.093 19.124-.28-.468 4.875-.703 8.968-.703 12.28 0 2.626.11 4.61.329 5.954h-2.25c-1.282-5.719-3.313-9.813-6.094-12.281-2.782-2.5-6.313-3.75-10.594-3.75h-1.219c-1.219 0-2.172.125-2.86.375-.687.25-1.202.734-1.546 1.453-.344.719-.516 1.797-.516 3.234v20.766h2.204c2.124 0 3.937-.547 5.437-1.64a12.321 12.321 0 0 0 3.609-4.126c.875-1.656 1.485-3.328 1.829-5.015h2.203a80.153 80.153 0 0 0-.329 7.359l.047 4.36c0 3.124.188 7.03.563 11.718h-2.203c-.469-3.062-1.672-5.61-3.61-7.64-1.906-2.063-4.421-3.094-7.546-3.094h-2.204v21.094c0 1.437.172 2.53.516 3.28.344.72.86 1.204 1.547 1.454.687.25 1.64.375 2.859.375h2.203c4.469 0 8.188-1.39 11.157-4.172 3-2.813 5.156-7.406 6.468-13.781h2.25zM133.891 69.719c.312 4.906 1.312 9.094 3 12.562 1.687 3.469 4 6.11 6.937 7.922 2.938 1.813 6.406 2.719 10.406 2.719 2.719 0 5.047-.61 6.985-1.828 1.937-1.219 2.906-3.063 2.906-5.531 0-1.594-.406-3.016-1.219-4.266-.781-1.281-2-2.547-3.656-3.797-1.625-1.281-3.938-2.86-6.938-4.734-4.312-2.594-7.921-4.97-10.828-7.125-2.875-2.188-5.218-4.563-7.031-7.125-1.781-2.594-2.672-5.36-2.672-8.297 0-3.469 1.047-6.39 3.141-8.766 2.125-2.375 5.047-4.156 8.766-5.344 3.718-1.218 8-1.828 12.843-1.828 5.407 0 10.266 1.188 14.578 3.563 1 .562 1.688.937 2.063 1.125.406.156.812.234 1.219.234.593 0 1.047-.344 1.359-1.031.312-.688.562-1.766.75-3.234h2.203c-.312 4.156-.469 11.328-.469 21.515h-2.203c-.593-4.375-1.75-8.047-3.469-11.016-1.718-2.968-3.859-5.187-6.421-6.656-2.563-1.468-5.422-2.203-8.579-2.203-3.031 0-5.453.578-7.265 1.734-1.813 1.126-2.719 2.626-2.719 4.5 0 1.657.61 3.235 1.828 4.735 1.219 1.5 2.782 2.922 4.688 4.266 1.906 1.343 4.953 3.343 9.14 6 3.782 2.218 6.891 4.25 9.328 6.093a25.707 25.707 0 0 1 6.188 6.563c1.688 2.5 2.531 5.36 2.531 8.578 0 3.531-1.109 6.516-3.328 8.953-2.187 2.438-5.265 4.281-9.234 5.531-3.969 1.219-8.578 1.828-13.828 1.828-2.157 0-4.203-.203-6.141-.609-1.906-.406-3.391-.797-4.453-1.172-1.063-.406-2.844-1.094-5.344-2.062-1.687-.72-2.812-1.079-3.375-1.079-.562 0-1 .329-1.312.985-.313.656-.578 1.734-.797 3.234h-2.203c.25-3.844.375-12.156.375-24.937h2.25zM249.016 37.563c-2.282.406-3.969 1.093-5.063 2.062-1.062.938-1.781 2.375-2.156 4.313-.375 1.906-.563 4.765-.563 8.578v15.468c0 4.407-.312 8.172-.937 11.297-.594 3.094-1.594 5.797-3 8.11-1.594 2.437-3.953 4.375-7.078 5.812-3.094 1.438-6.594 2.156-10.5 2.156-7.563 0-13.578-1.406-18.047-4.218-2.438-1.688-4.297-3.485-5.578-5.391-1.282-1.938-2.172-4.25-2.672-6.938-.5-2.718-.75-6.234-.75-10.546V45.812c0-2.406-.172-4.156-.516-5.25-.344-1.093-.984-1.843-1.922-2.25-.906-.406-2.375-.656-4.406-.75v-1.921c3.469.187 8.86.28 16.172.28 6.938 0 12.281-.093 16.031-.28v1.922c-2.062.093-3.562.343-4.5.75-.906.406-1.531 1.156-1.875 2.25-.312 1.062-.468 2.812-.468 5.25v24.093c0 4.531.296 8.281.89 11.25.625 2.969 1.906 5.36 3.844 7.172 1.937 1.813 4.781 2.719 8.531 2.719 5.344 0 9.109-1.938 11.297-5.813 2.188-3.875 3.281-9.265 3.281-16.171V54.437c0-4.718-.187-8.109-.562-10.171-.375-2.094-1.219-3.625-2.531-4.594-1.313-1-3.516-1.703-6.61-2.11v-1.921c2.625.187 6.219.28 10.781.28 3.813 0 6.782-.093 8.907-.28v1.922zM333.672 37.563c-2.313.093-4 .343-5.063.75-1.031.406-1.75 1.156-2.156 2.25-.375 1.093-.562 2.843-.562 5.25v38.015c0 2.406.187 4.156.562 5.25.406 1.094 1.125 1.844 2.156 2.25 1.063.406 2.75.656 5.063.75V94c-3.75-.188-9.094-.281-16.031-.281-8.625 0-14.953.094-18.985.281v-1.922c2.313-.094 3.985-.344 5.016-.75 1.062-.406 1.781-1.156 2.156-2.25.406-1.094.61-2.844.61-5.25v-42.14l-21.235 52.78h-1.547l-22.265-52.687v38.203c0 3.063.281 5.36.843 6.891.563 1.531 1.563 2.672 3 3.422 1.469.75 3.735 1.344 6.797 1.781V94c-3.125-.188-7.015-.281-11.672-.281-3.437 0-6.093.094-7.968.281v-1.922c2-.437 3.468-1.016 4.406-1.734.937-.75 1.562-1.89 1.875-3.422.344-1.531.516-3.844.516-6.938V45.813c0-2.407-.204-4.157-.61-5.25-.375-1.094-1.094-1.844-2.156-2.25-1.031-.407-2.703-.657-5.016-.75V35.64c4.219.187 10.719.28 19.5.28 3.5 0 6.438-.093 8.813-.28l13.64 32.625 13.079-32.344h11.203c6.937 0 12.281-.094 16.031-.281v1.922zM391.141 73.844c-.219 1.719-.329 4.015-.329 6.89 0 3.532.235 7.954.704 13.266-4.157-.188-11.172-.281-21.047-.281-14.063 0-24.625.094-31.688.281v-1.922c2.063-.094 3.547-.344 4.453-.75.938-.406 1.563-1.156 1.875-2.25.344-1.094.516-2.844.516-5.25V45.812c0-2.406-.172-4.156-.516-5.25-.343-1.093-.984-1.843-1.921-2.25-.907-.406-2.376-.656-4.407-.75v-1.921c7.063.187 17.625.28 31.688.28 8.969 0 15.343-.093 19.125-.28-.469 4.875-.703 8.968-.703 12.28 0 2.626.109 4.61.328 5.954h-2.25c-1.281-5.719-3.313-9.813-6.094-12.281-2.781-2.5-6.313-3.75-10.594-3.75h-1.219c-1.218 0-2.171.125-2.859.375-.687.25-1.203.734-1.547 1.453-.344.719-.515 1.797-.515 3.234v20.766h2.203c2.125 0 3.937-.547 5.437-1.64 1.531-1.126 2.735-2.5 3.61-4.126.875-1.656 1.484-3.328 1.828-5.015h2.203a80.16 80.16 0 0 0-.328 7.359l.047 4.36c0 3.124.187 7.03.562 11.718H377.5c-.469-3.062-1.672-5.61-3.609-7.64-1.907-2.063-4.422-3.094-7.547-3.094h-2.203v21.094c0 1.437.171 2.53.515 3.28.344.72.86 1.204 1.547 1.454.688.25 1.641.375 2.859.375h2.204c4.468 0 8.187-1.39 11.156-4.172 3-2.813 5.156-7.406 6.469-13.781h2.25zM76.769 24c6.527 0 11.007-4.512 11.007-11.2S83.296 1.6 76.77 1.6h-6.08V24h6.08zm0-20.64c5.6 0 9.247 3.712 9.247 9.44s-3.648 9.44-9.248 9.44h-4.32V3.36h4.32zM90.596 12.8c0 6.592 4.736 11.488 11.136 11.488 6.4 0 11.136-4.896 11.136-11.488s-4.736-11.488-11.136-11.488c-6.4 0-11.136 4.896-11.136 11.488zm1.856 0c0-5.6 3.904-9.728 9.28-9.728 5.376 0 9.248 4.128 9.248 9.728s-3.872 9.728-9.248 9.728c-5.376 0-9.28-4.128-9.28-9.728zM116.778 1.6v15.168c0 4.448 2.656 7.552 7.168 7.552 4.512 0 7.168-3.104 7.168-7.552V1.6h-1.76v15.168c0 3.584-1.952 5.888-5.408 5.888-3.456 0-5.408-2.304-5.408-5.888V1.6h-1.76zM146.809 14.496h8.032c-.48 4.32-3.584 8.032-8.608 8.032-5.312 0-9.312-4.032-9.312-9.728 0-5.728 4.032-9.728 9.312-9.728 3.616 0 6.368 1.696 7.872 4.16l1.28-1.12c-1.92-2.976-5.024-4.8-9.152-4.8-6.4 0-11.168 4.8-11.168 11.488s4.768 11.488 11.168 11.488c6.592 0 10.528-5.376 10.528-11.456h-9.952v1.664zM170.722 17.152l-1.504.864c1.216 3.456 3.744 6.272 7.552 6.272 4.256 0 6.496-2.624 6.496-6.176 0-3.808-3.104-5.536-5.568-6.432-2.72-.992-5.44-2.304-5.44-4.864 0-2.272 1.6-3.808 4.096-3.808 2.816 0 4.416 2.144 5.248 4.096l1.44-.896c-.928-2.464-2.912-4.896-6.528-4.896-3.584 0-6.112 2.208-6.112 5.472 0 3.872 3.392 5.28 5.76 6.144 2.528.896 5.28 2.272 5.28 5.312 0 2.592-1.376 4.384-4.576 4.384-3.232 0-4.992-2.528-6.144-5.472zM185.167 3.264h5.888V24h1.76V3.264h5.888V1.6h-13.536v1.664zM201.845 1.6V24h12.032v-1.664h-10.272v-9.792h9.632V10.88h-9.632V3.264h10.272V1.6h-12.032zM238.586 20.32L231.834.736l-6.752 19.584L218.65 1.6h-1.952l8.288 23.264 6.848-19.296 6.848 19.296L246.97 1.6h-1.952l-6.432 18.72zM262.08 24h1.984L254.176.736 244.288 24h1.984l3.072-7.52h9.664L262.08 24zm-7.904-19.2l4.16 10.016h-8.288L254.176 4.8zM267.032 1.6V24h1.76v-9.408h2.944L278.264 24h2.176l-6.784-9.504c3.552-.48 6.08-2.752 6.08-6.4 0-4.128-3.264-6.496-7.584-6.496h-5.12zm5.12 1.568c3.392 0 5.824 1.696 5.824 4.928s-2.4 4.928-5.824 4.928h-3.36V3.168h3.36zM281.542 3.264h5.888V24h1.76V3.264h5.888V1.6h-13.536v1.664z"/>
</svg>
